<?xml version="1.0" encoding="UTF-8"?>
<svg width="100pt" height="100pt" version="1.1" viewBox="0 0 100 100" xmlns="http://www.w3.org/2000/svg">
 <path d="m91.914 45.633-16.344 16.82 3.8633 23.789c0.40625 2.5039-0.60547 4.9453-2.6445 6.3828-1.9453 1.3672-4.4375 1.5-6.5156 0.35156l-20.039-11.121-20.043 11.121c-0.9375 0.52344-1.9609 0.77734-2.9844 0.77734-1.2383 0-2.4648-0.37891-3.5312-1.1289-2.0391-1.4297-3.0547-3.8789-2.6484-6.3828l3.8633-23.789-16.344-16.82c-1.707-1.7578-2.2773-4.3047-1.4922-6.6562 0.76562-2.2773 2.6797-3.9141 5-4.2695l22.461-3.4453 10.07-21.367c1.0508-2.2422 3.2148-3.6445 5.6484-3.6445 2.4297 0 4.5977 1.3984 5.6484 3.6484l10.07 21.355 22.461 3.4453c2.3203 0.35547 4.2344 1.9922 5 4.2695 0.78906 2.3477 0.21484 4.8984-1.4922 6.6562z"/>
</svg>
