<?xml version="1.0" encoding="UTF-8"?>
<svg width="100pt" height="100pt" version="1.1" viewBox="0 0 100 100" xmlns="http://www.w3.org/2000/svg">
 <path d="m61.898 68.398c-1.1992 0.10156-2.3008-0.5-3.3984-1.1016-10.102-5.8984-18.699-14.297-24.699-24.297-1.1016-1.6992-2.1016-3.6992-1.6992-5.6992 0.69922-3.8008 5.5-5.3008 6.8984-8.8984 1.3008-3.1016-0.39844-6.6016-2.3984-9.3008-3.3008-4.5-7.5-8.3984-12.301-11.301-2.3008-1.4023-4.8008-2.6016-7.5-2.8008-12.102-0.60156-12.801 19.602-11.199 27.5 1.6992 8.1992 5.8008 15.801 10.602 22.699 11.301 16.398 26.801 30.301 45.602 36.898 6.6016 2.3008 13.699 3.6992 20.5 2.1016 3.3984-0.80078 6.6016-2.3008 9-4.8984 2.3984-2.5 3.6992-6.1016 3.1016-9.5-0.60156-3.5-3-6.3008-5.3984-8.8008-3.5-3.6016-7.3984-6.8008-11.602-9.6016-0.80078-0.5-1.6016-1-2.5-1.1016-1-0.10156-1.8984 0.39844-2.8008 0.89844-2.5 1.3984-4.8008 3.1016-6.8008 5-0.89844 0.89844-1.8984 1.8008-3.1016 2-0.10156 0.10547-0.20312 0.20313-0.30469 0.20313z"/>
</svg>
