<?xml version="1.0" encoding="UTF-8"?>
<svg width="100pt" height="100pt" version="1.1" viewBox="0 0 100 100" xmlns="http://www.w3.org/2000/svg">
 <path d="m88.75 18.406c-6.875 6.9688-31.938 32.344-37.125 37.594-0.90625 0.875-2.3438 0.875-3.25 0-5.3125-5.3438-30.094-30.469-37.125-37.594 0.39062-0.089844 0.78906-0.12891 1.1875-0.125h75.125c0.39844-0.003906 0.79688 0.035156 1.1875 0.125zm4.375 4.4375c-7 7.125-31.906 32.344-37.062 37.531-1.5898 1.6367-3.7773 2.5625-6.0625 2.5625s-4.4727-0.92578-6.0625-2.5625c-5.2812-5.3438-29.969-30.312-37.062-37.531-0.085938 0.36719-0.12891 0.74609-0.125 1.125v52.062c0 3.1406 2.5469 5.6875 5.6875 5.6875h75.125c3.1406 0 5.6875-2.5469 5.6875-5.6875v-52.062c0.003906-0.37891-0.039062-0.75781-0.125-1.125z"/>
</svg>
