<svg fill="none" viewBox="0 0 500 131" height="131" width="500" xmlns="http://www.w3.org/2000/svg"><g clip-path="url(#clip0_2079_120371)"><path fill="#222" d="M186.679 78.7317H216.819L218.594 74.0671C217.499 73.765 216.706 73.0851 216.328 71.9898C215.743 70.6112 216.328 69.2326 216.819 67.8351L223.523 51.7261C224.222 50.0454 224.222 48.459 223.523 46.7783C222.976 45.3052 221.144 42.3025 219.463 41.8682C223.523 40.1496 226.677 36.9958 229.642 33.7287C231.134 32.0479 234.004 28.592 235.27 25.8159C236.554 23.5497 237.347 21.9633 237.932 19.395C238.518 17.0155 238.726 15.448 238.726 12.9741C238.461 9.48033 237.234 7.13859 236.063 5.57113C233.494 2.11517 230.53 0.132246 226.186 0.132246H176.783L171.344 13.0118L167.982 21.2646L164.942 28.6109L159.9 40.6784L144.093 78.7317H168.398L180.428 49.8565L189.322 50.2531C191.589 50.3475 193.477 51.3296 194.572 53.2181C195.554 54.8988 195.762 56.8818 195.063 58.7514L186.679 78.7128V78.7317ZM187.434 32.9733L191.966 22.0955H206.791C207.886 22.0955 208.661 22.8698 209.171 23.7574C209.473 24.3429 209.756 25.0416 209.756 25.8348C209.832 28.3087 208.075 30.3861 207.188 31.0659C205.715 32.2557 204.223 32.9544 202.24 32.9544H187.415L187.434 32.9733ZM222.05 78.7128H243.995L262.238 35.1073L262.407 34.7296L261.067 43.4167L255.647 78.694H272.039L297.609 40.6217L301.556 34.6918L301.518 34.8052L298.119 43.3978L283.408 78.694H305.937L321.518 40.6406L327.731 25.797H327.825L338.627 0.0944755H307.505L298.516 12.9552L281.066 37.5246L280.82 37.4868L285.258 8.55497L286.637 0.11336H254.721L249.396 12.9741L245.619 22.2655L242.994 28.592L236.875 43.4167L222.069 78.7128H222.05ZM262.445 34.6163V34.6918H262.407L262.445 34.6163ZM80.9223 43.5112L77.863 50.933C75.2002 57.4672 74.7092 63.0949 78.1651 69.3081C82.4143 76.9188 90.0249 78.7884 98.8254 78.7884H107.021C118.692 78.7884 126.492 76.5033 135.387 69.0815C141.808 63.737 144.565 59.1857 147.738 51.3862L152.081 40.7162L158.2 25.8914L164.507 10.5757L168.945 0.170016H143.753L139.617 10.5568L138.427 13.0307L133.196 25.8725L132.006 28.6486L126.983 40.7162L123.433 49.12C120.959 54.9555 114.632 58.7136 109.004 57.7316C104.661 57.0328 102.583 52.0094 104.057 48.3457L106.134 43.5112L112.253 28.6864L118.862 13.0685L123.98 0.207786H98.7876L93.462 13.0685L87.0411 28.6864L80.9223 43.5112V43.5112ZM333.226 78.6562L344.784 63.6237H367.012L365.444 78.6373H390.939L393.583 40.584L394.565 25.7592L396.34 0.0567054H369.863L361.969 10.4624L360.1 12.9363L350.431 25.797L348.259 28.5731L338.873 40.6406L309.733 78.694H333.245L333.226 78.6562ZM362.366 40.584L370.26 30.4994L368.976 43.3412L368.674 46.7972H357.607L362.347 40.584H362.366ZM26.1935 78.3163L36.5614 53.5958H62.7549L68.4771 40.7351L71.9331 32.8222H45.5507L48.4212 25.9103L49.8942 22.2466H82.1121L86.8334 10.5757H86.9467L91.1769 0.226671H91.0069L31.8779 0.264441L27.5344 10.6512H27.5721L21.2268 25.967H21.2834V26.0047L21.2268 25.967L18.9983 31.4436L15.108 40.7917H15.2213L0 78.3351H26.1935V78.3163ZM470.653 10.3868L469.463 12.8608L464.232 25.7026L459.492 37.2602L456.621 25.7026L452.863 10.3868L450.087 0.0189354H427.368L423.232 10.4057L422.043 12.8796L416.811 25.7215L410.598 40.5462L409.522 43.3034L394.716 78.5995H419.625L435.621 40.5273L436.905 37.0714L437.698 40.5273L438.189 43.2845L445.724 78.5618H467.367L483.249 40.4896L489.462 25.6648L495.883 10.349L500.019 -0.0377197H475.11L470.672 10.349L470.653 10.3868Z"></path><path fill="#222" d="M482.268 68.0239C485.516 68.0239 488.198 70.6489 488.198 73.9349C488.198 77.2209 485.516 79.846 482.268 79.846C479.02 79.846 476.338 77.2209 476.338 73.9349C476.338 70.6489 479.02 68.0239 482.268 68.0239ZM482.268 79.0339C485.082 79.0339 487.253 76.8055 487.253 73.9349C487.253 71.0644 485.082 68.836 482.249 68.836C479.416 68.836 477.263 71.0644 477.263 73.9349C477.263 76.8055 479.435 79.0339 482.268 79.0339ZM480.927 77.4098H480.058V70.4223H482.702C484.289 70.4223 485.063 71.1022 485.063 72.4053C485.063 73.6328 484.232 74.1804 483.269 74.3315L485.308 77.4098H484.251L482.324 74.3504H480.927V77.4098ZM482.494 73.5006C483.552 73.5006 484.137 73.104 484.137 72.3675C484.137 71.6498 483.552 71.2533 482.494 71.2533H480.927V73.5006H482.494V73.5006Z"></path><path fill="#222" d="M247.848 115.255C247.98 112.781 248.83 111.006 250.397 109.892C251.946 108.778 253.948 108.23 256.346 108.23C257.272 108.23 258.197 108.324 259.122 108.494C260.048 108.664 260.879 109.004 261.596 109.495C262.333 109.986 262.918 110.666 263.39 111.554C263.844 112.441 264.089 113.574 264.089 114.991V126.133C264.089 127.172 264.599 127.682 265.6 127.682C265.864 127.682 266.147 127.625 266.412 127.512V129.664C266.11 129.721 265.845 129.759 265.619 129.778C265.392 129.797 265.09 129.816 264.75 129.816C264.108 129.816 263.579 129.721 263.183 129.551C262.786 129.381 262.484 129.117 262.276 128.796C262.049 128.475 261.917 128.078 261.842 127.644C261.785 127.191 261.747 126.7 261.747 126.152H261.672C261.218 126.832 260.746 127.436 260.274 127.965C259.802 128.494 259.273 128.947 258.688 129.306C258.102 129.664 257.441 129.948 256.667 130.137C255.912 130.325 255.024 130.42 254.023 130.42C253.022 130.42 252.135 130.307 251.285 130.061C250.435 129.816 249.68 129.438 249.057 128.947C248.414 128.437 247.923 127.814 247.546 127.039C247.187 126.265 246.998 125.359 246.998 124.301C246.998 122.828 247.319 121.695 247.98 120.864C248.622 120.033 249.491 119.41 250.567 118.976C251.644 118.541 252.852 118.239 254.193 118.069C255.534 117.899 256.894 117.729 258.272 117.559C258.782 117.503 259.254 117.427 259.67 117.333C260.085 117.238 260.444 117.087 260.709 116.898C260.973 116.709 261.2 116.445 261.332 116.086C261.483 115.727 261.558 115.274 261.558 114.708C261.558 113.839 261.407 113.121 261.124 112.574C260.841 112.026 260.444 111.573 259.953 111.252C259.443 110.931 258.877 110.704 258.197 110.572C257.536 110.458 256.818 110.383 256.063 110.383C254.458 110.383 253.136 110.761 252.097 111.535C251.058 112.309 250.511 113.556 250.454 115.255H247.886H247.848ZM261.502 118.352H261.426C261.256 118.655 260.954 118.862 260.501 119.013C260.048 119.146 259.632 119.24 259.273 119.297C258.197 119.485 257.064 119.655 255.912 119.806C254.76 119.958 253.702 120.184 252.758 120.467C251.814 120.77 251.021 121.185 250.416 121.752C249.812 122.299 249.51 123.093 249.51 124.131C249.51 124.773 249.642 125.359 249.887 125.85C250.152 126.36 250.492 126.794 250.926 127.153C251.36 127.512 251.87 127.795 252.437 127.984C253.003 128.173 253.589 128.267 254.193 128.267C255.175 128.267 256.101 128.116 257.007 127.814C257.895 127.512 258.688 127.077 259.349 126.511C260.01 125.944 260.539 125.245 260.935 124.433C261.332 123.621 261.521 122.696 261.521 121.676V118.333L261.502 118.352Z"></path><path fill="#222" d="M276.592 100.789H282.937L295.042 120.26H295.118V100.789H301.086V129.816H294.703L282.635 110.383H282.559V129.816H276.592V100.789V100.789Z"></path><path fill="#222" d="M304.674 108.797H310.453V129.816H304.674V108.797V108.797ZM310.453 105.548H304.674V100.789H310.453V105.548Z"></path><path fill="#222" d="M327.6 116.199C327.241 113.839 325.73 112.574 323.332 112.574C319.63 112.574 318.421 116.313 318.421 119.41C318.421 122.507 319.592 126.039 323.218 126.039C325.9 126.039 327.448 124.339 327.807 121.771H333.378C332.642 127.342 328.789 130.382 323.256 130.382C316.911 130.382 312.643 125.906 312.643 119.618C312.643 113.329 316.552 108.23 323.369 108.23C328.336 108.23 332.887 110.836 333.246 116.199H327.6V116.199Z"></path><path fill="#222" d="M340.951 117.049C341.027 115.425 342.084 112.574 345.748 112.574C348.562 112.574 349.808 114.122 350.337 117.049H340.951ZM356.116 120.713C356.531 114.254 353.076 108.23 345.918 108.23C339.535 108.23 335.191 113.027 335.191 119.334C335.191 125.642 339.289 130.382 345.918 130.382C350.677 130.382 354.133 128.267 355.757 123.319H350.677C350.318 124.622 348.449 126.039 346.126 126.039C342.915 126.039 341.121 124.377 340.97 120.713H356.135H356.116Z"></path><path fill="#222" d="M366.201 100.752H368.751V112.706H368.826C369.922 109.722 372.943 108.136 376.059 108.136C382.405 108.136 385.426 113.272 385.426 119.164C385.426 125.057 382.405 130.193 376.059 130.193C372.717 130.193 369.808 128.456 368.637 125.623H368.562V129.589H366.22V100.752H366.201ZM376.059 110.289C370.658 110.289 368.751 114.859 368.751 119.164C368.751 123.47 370.658 128.04 376.059 128.04C380.913 128.04 382.877 123.47 382.877 119.164C382.877 114.859 380.894 110.289 376.059 110.289V110.289Z"></path><path fill="#222" d="M389.391 108.74H391.732V113.631H391.808C393.092 110.289 395.925 108.306 399.683 108.457V111.006C395.075 110.761 391.94 114.16 391.94 118.485V129.589H389.391V108.759V108.74Z"></path><path fill="#222" d="M401.854 115.123C402.1 110.232 405.537 108.136 410.296 108.136C413.979 108.136 417.963 109.269 417.963 114.84V125.906C417.963 126.87 418.454 127.436 419.455 127.436C419.739 127.436 420.06 127.361 420.267 127.266V129.4C419.701 129.513 419.304 129.57 418.605 129.57C416.018 129.57 415.622 128.116 415.622 125.944H415.546C413.771 128.645 411.958 130.174 407.954 130.174C403.951 130.174 400.967 128.286 400.967 124.075C400.967 118.22 406.651 118.012 412.147 117.37C414.243 117.125 415.414 116.842 415.414 114.538C415.414 111.101 412.959 110.251 409.956 110.251C406.802 110.251 404.461 111.705 404.385 115.104H401.835L401.854 115.123ZM415.414 118.201H415.338C415.017 118.806 413.884 119.013 413.204 119.127C408.88 119.901 403.516 119.844 403.516 123.924C403.516 126.473 405.782 128.04 408.162 128.04C412.033 128.04 415.47 125.585 415.433 121.506V118.201H415.414Z"></path><path fill="#222" d="M423.025 108.74H425.575V112.328H425.65C426.576 109.816 429.371 108.136 432.317 108.136C438.171 108.136 439.946 111.195 439.946 116.162V129.57H437.397V116.577C437.397 112.989 436.226 110.27 432.109 110.27C427.992 110.27 425.65 113.348 425.575 117.408V129.57H423.025V108.74V108.74Z"></path><path fill="#222" d="M463.081 129.589H460.739V125.623H460.664C459.568 128.324 456.264 130.193 453.242 130.193C446.897 130.193 443.875 125.057 443.875 119.164C443.875 113.272 446.897 108.136 453.242 108.136C456.358 108.136 459.38 109.703 460.475 112.706H460.55V100.752H463.1V129.589H463.081ZM453.223 128.059C458.624 128.059 460.532 123.489 460.532 119.183C460.532 114.878 458.624 110.307 453.223 110.307C448.37 110.307 446.406 114.878 446.406 119.183C446.406 123.489 448.389 128.059 453.223 128.059Z"></path></g><defs><clipPath id="clip0_2079_120371"><rect fill="#222" height="130.42" width="500"></rect></clipPath></defs></svg> 