<?xml version="1.0" encoding="UTF-8"?>
<svg width="100pt" height="100pt" version="1.1" viewBox="0 0 100 100" xmlns="http://www.w3.org/2000/svg">
 <path d="m50 5.207c-9.6641 0.011719-18.934 3.8555-25.77 10.691-6.832 6.8359-10.68 16.102-10.688 25.77 0 18.832 25.543 53.125 36.457 53.125 10.918 0 36.457-34.293 36.457-53.125-0.007812-9.668-3.8555-18.934-10.688-25.77-6.8359-6.8359-16.105-10.68-25.77-10.691zm0 54.168c-4.6953 0-9.1992-1.8672-12.523-5.1875-3.3203-3.3203-5.1836-7.8242-5.1836-12.52 0-4.6992 1.8633-9.2031 5.1836-12.523 3.3242-3.3203 7.8281-5.1875 12.523-5.1875s9.1992 1.8672 12.523 5.1875c3.3203 3.3203 5.1836 7.8242 5.1836 12.523-0.007812 4.6914-1.8789 9.1914-5.1953 12.508-3.3203 3.3203-7.8164 5.1875-12.512 5.1992z"/>
</svg>
