<?xml version="1.0" encoding="UTF-8"?> <svg xmlns="http://www.w3.org/2000/svg" width="500" height="133" viewBox="0 0 500 133" fill="none"><g clip-path="url(#clip0_2079_120351)"><path d="M55.3387 69.1493C55.3387 69.1493 61.4157 70.049 63.9959 64.6509L73.2643 41.0216C73.2643 41.0216 77.6948 31.9909 65.4388 30.8196H19.742L0 85.8188H21.5074L35.8174 43.3812L51.5362 43.483C51.5362 43.483 53.2168 43.9414 53.2847 45.0957C53.3526 46.3179 53.2847 46.9799 53.2847 46.9799L50.5347 54.2452C50.5347 54.2452 50.2801 55.3146 49.2955 55.8578C48.3449 56.3671 47.0548 56.401 47.0548 56.401H29.6045L26.0906 69.319L55.3387 69.1493V69.1493Z" fill="#FCB813"></path><path d="M233.764 31.0573L192.939 84.8342L213.02 31.0573H192.803L181.124 58.1155L166.525 30.9385H142.455L123.409 84.8342V30.9385L93.1423 30.8875L51.876 85.8188H76.5237L86.4541 70.9996L105.958 71.0675L105.857 85.8188H123.018H143.575L154.796 52.8193L172.212 85.8188H192.158V85.8358H216.806L226.617 71.1184L246.393 71.3051L246.427 85.8018H263.538V31.0403H233.747L233.764 31.0573ZM106.094 55.6541H96.758L106.179 43.4491L106.094 55.6541ZM237.091 56.0955L246.342 43.5849L246.376 56.1294H237.091V56.0955Z" fill="#FBB615"></path><path d="M490.257 31.9739H470.396L458.004 47.4552L448.311 31.5156H423.765L439.824 56.6896L416.958 84.3929V31.3968H387.167L346.427 84.8682L368.359 31.4647H334.477L313.105 57.3007L312.664 31.2949H283.11L263.589 85.8358H284.621L296.537 52.5647V85.8867H311.119L336.955 52.9381L322.323 85.8188H345.697H370.345L380.038 71.5597L399.593 71.6277L399.508 85.8188L415.702 85.9206H416.212H416.975H438.024L451.095 69.1153L461.637 86.0395H486.641L468.766 58.0985L490.257 31.9739V31.9739ZM399.695 56.5538L390.528 56.435L399.78 44.0092L399.712 56.5538H399.695Z" fill="#FBB615"></path><path d="M317.994 0.926582L345.748 0.909607L334.154 16.0853L342.913 13.9464L317.06 44.2809V22.4509L310.593 23.9447L317.994 0.926582Z" fill="#FBB615"></path><path d="M497.25 79.1646C497.878 79.5041 498.354 79.9794 498.71 80.6075C499.067 81.2355 499.236 81.8806 499.236 82.5596C499.236 83.2386 499.067 83.8837 498.727 84.4948C498.388 85.1059 497.895 85.5981 497.284 85.9376C496.673 86.2771 496.011 86.4469 495.349 86.4469C494.687 86.4469 494.025 86.2771 493.414 85.9376C492.786 85.5981 492.311 85.1059 491.971 84.4948C491.632 83.8837 491.462 83.2386 491.462 82.5596C491.462 81.8806 491.632 81.2355 491.988 80.6075C492.345 79.9794 492.82 79.5041 493.448 79.1646C494.076 78.8251 494.704 78.6553 495.366 78.6553C496.028 78.6553 496.656 78.8251 497.284 79.1646H497.25ZM493.041 78.4856C492.294 78.893 491.7 79.4701 491.292 80.217C490.868 80.9639 490.664 81.7448 490.664 82.5596C490.664 83.3744 490.868 84.1383 491.275 84.8852C491.683 85.6321 492.26 86.2092 493.007 86.6166C493.754 87.024 494.517 87.2277 495.332 87.2277C496.147 87.2277 496.911 87.024 497.658 86.6166C498.405 86.2092 498.982 85.6321 499.389 84.8852C499.797 84.1383 500 83.3744 500 82.5596C500 81.7448 499.797 80.9639 499.372 80.217C498.948 79.4701 498.371 78.893 497.624 78.4856C496.877 78.0782 496.113 77.8745 495.332 77.8745C494.551 77.8745 493.788 78.0782 493.041 78.4856ZM494.093 85.1568V83.0179H494.568C494.857 83.0179 495.078 83.0688 495.23 83.1877C495.434 83.3404 495.723 83.7309 496.079 84.3589L496.52 85.1568H497.522L496.911 84.1722C496.622 83.7139 496.368 83.3744 496.164 83.1707C496.062 83.0688 495.909 82.984 495.74 82.8991C496.181 82.8651 496.52 82.7124 496.792 82.4408C497.064 82.1692 497.183 81.8466 497.183 81.4732C497.183 81.2186 497.098 80.9639 496.945 80.7433C496.792 80.5056 496.571 80.3528 496.317 80.251C496.045 80.1661 495.621 80.1152 495.027 80.1152H493.295V85.1568H494.093ZM494.093 80.7942H495.027C495.434 80.7942 495.706 80.8281 495.858 80.8791C496.011 80.93 496.13 81.0318 496.198 81.1507C496.283 81.2695 496.317 81.4053 496.317 81.5581C496.317 81.7957 496.232 81.9824 496.062 82.1182C495.892 82.254 495.57 82.3389 495.078 82.3389H494.076V80.8112L494.093 80.7942Z" fill="#FCB813"></path><path d="M296.69 118.988C296.809 116.815 297.556 115.237 298.931 114.252C300.306 113.267 302.054 112.775 304.176 112.775C304.991 112.775 305.806 112.86 306.62 113.013C307.435 113.166 308.165 113.454 308.81 113.896C309.455 114.32 309.981 114.931 310.389 115.712C310.796 116.493 311 117.494 311 118.733V128.562C311 129.479 311.441 129.92 312.324 129.92C312.562 129.92 312.799 129.869 313.037 129.767V131.668C312.765 131.719 312.545 131.753 312.341 131.77C312.137 131.787 311.883 131.804 311.577 131.804C311 131.804 310.542 131.719 310.202 131.567C309.863 131.414 309.591 131.193 309.387 130.905C309.201 130.616 309.065 130.276 309.014 129.886C308.963 129.496 308.929 129.054 308.929 128.579H308.861C308.454 129.173 308.046 129.716 307.622 130.175C307.198 130.633 306.739 131.04 306.23 131.363C305.721 131.685 305.127 131.923 304.448 132.093C303.786 132.263 303.005 132.347 302.122 132.347C301.239 132.347 300.458 132.246 299.695 132.025C298.948 131.804 298.286 131.482 297.725 131.04C297.165 130.599 296.724 130.039 296.401 129.36C296.079 128.681 295.909 127.866 295.909 126.932C295.909 125.642 296.198 124.624 296.775 123.894C297.352 123.164 298.116 122.604 299.05 122.23C300 121.857 301.053 121.585 302.241 121.415C303.429 121.263 304.617 121.11 305.84 120.974C306.298 120.923 306.705 120.855 307.079 120.77C307.452 120.686 307.758 120.567 307.995 120.397C308.233 120.227 308.42 119.99 308.556 119.684C308.691 119.378 308.759 118.971 308.759 118.462C308.759 117.698 308.64 117.07 308.386 116.578C308.131 116.085 307.792 115.695 307.35 115.406C306.909 115.118 306.4 114.914 305.806 114.812C305.211 114.71 304.6 114.659 303.921 114.659C302.512 114.659 301.341 114.999 300.425 115.678C299.508 116.357 299.016 117.46 298.965 118.954H296.707L296.69 118.988ZM308.742 121.704H308.674C308.539 121.976 308.25 122.162 307.843 122.281C307.435 122.4 307.079 122.485 306.773 122.536C305.823 122.706 304.821 122.858 303.82 122.977C302.801 123.113 301.867 123.3 301.036 123.571C300.204 123.843 299.508 124.216 298.965 124.709C298.421 125.201 298.167 125.897 298.167 126.814C298.167 127.391 298.286 127.9 298.506 128.341C298.727 128.783 299.033 129.173 299.423 129.496C299.813 129.818 300.255 130.056 300.747 130.226C301.256 130.395 301.766 130.48 302.292 130.48C303.158 130.48 303.972 130.344 304.77 130.09C305.551 129.835 306.247 129.445 306.824 128.935C307.418 128.426 307.877 127.832 308.216 127.102C308.556 126.389 308.742 125.574 308.742 124.658V121.721V121.704Z" fill="#808184"></path><path d="M322.051 106.223H327.653L338.33 123.402H338.398V106.223H343.677V131.821H338.041L327.398 114.676H327.33V131.821H322.068V106.223H322.051Z" fill="#00529B"></path><path d="M346.817 113.284H351.91V131.821H346.817V113.284ZM351.91 110.416H346.817V106.223H351.91V110.416Z" fill="#00529B"></path><path d="M367.051 119.82C366.729 117.732 365.405 116.628 363.283 116.628C360.024 116.628 358.937 119.922 358.937 122.655C358.937 125.388 359.973 128.494 363.164 128.494C365.524 128.494 366.899 126.983 367.221 124.726H372.127C371.482 129.631 368.07 132.33 363.198 132.33C357.596 132.33 353.845 128.392 353.845 122.824C353.845 117.257 357.291 112.792 363.317 112.792C367.696 112.792 371.702 115.084 372.025 119.82H367.034H367.051Z" fill="#00529B"></path><path d="M378.833 120.567C378.901 119.141 379.834 116.628 383.06 116.628C385.538 116.628 386.641 117.986 387.117 120.567H378.833ZM392.209 123.792C392.566 118.088 389.527 112.792 383.212 112.792C377.577 112.792 373.74 117.019 373.74 122.587C373.74 128.155 377.356 132.347 383.212 132.347C387.405 132.347 390.461 130.48 391.887 126.101H387.405C387.083 127.255 385.436 128.511 383.382 128.511C380.547 128.511 378.969 127.034 378.833 123.809H392.209V123.792Z" fill="#00529B"></path><path d="M401.104 106.189H403.344V116.73H403.412C404.38 114.099 407.045 112.707 409.795 112.707C415.38 112.707 418.062 117.223 418.062 122.434C418.062 127.645 415.397 132.161 409.795 132.161C406.841 132.161 404.278 130.633 403.242 128.138H403.174V131.634H401.104V106.206V106.189ZM409.795 114.591C405.025 114.591 403.344 118.615 403.344 122.434C403.344 126.253 405.025 130.276 409.795 130.276C414.072 130.276 415.821 126.253 415.821 122.434C415.821 118.615 414.072 114.591 409.795 114.591Z" fill="#808184"></path><path d="M421.559 113.25H423.63V117.562H423.697C424.835 114.608 427.33 112.86 430.64 112.996V115.237C426.583 115.016 423.799 118.02 423.799 121.823V131.617H421.559V113.233V113.25Z" fill="#808184"></path><path d="M432.557 118.869C432.778 114.558 435.8 112.707 440.009 112.707C443.252 112.707 446.783 113.709 446.783 118.615V128.375C446.783 129.224 447.207 129.733 448.107 129.733C448.361 129.733 448.633 129.665 448.82 129.597V131.482C448.327 131.584 447.971 131.617 447.36 131.617C445.085 131.617 444.729 130.327 444.729 128.409H444.661C443.099 130.803 441.486 132.144 437.972 132.144C434.459 132.144 431.811 130.463 431.811 126.763C431.811 121.602 436.835 121.415 441.673 120.855C443.523 120.635 444.559 120.397 444.559 118.36C444.559 115.338 442.386 114.592 439.755 114.592C436.971 114.592 434.917 115.882 434.832 118.869H432.591H432.557ZM444.525 121.568H444.457C444.168 122.094 443.167 122.281 442.573 122.383C438.753 123.062 434.017 123.028 434.017 126.627C434.017 128.868 436.003 130.259 438.108 130.259C441.52 130.259 444.559 128.087 444.525 124.488V121.568V121.568Z" fill="#808184"></path><path d="M451.23 113.25H453.471V116.425H453.539C454.354 114.218 456.815 112.724 459.412 112.724C464.573 112.724 466.151 115.423 466.151 119.82V131.651H463.911V120.176C463.911 117.002 462.875 114.625 459.243 114.625C455.61 114.625 453.539 117.324 453.471 120.923V131.651H451.23V113.267V113.25Z" fill="#808184"></path><path d="M486.556 131.617H484.485V128.121H484.417C483.449 130.514 480.53 132.144 477.864 132.144C472.28 132.144 469.598 127.628 469.598 122.417C469.598 117.206 472.263 112.69 477.864 112.69C480.614 112.69 483.28 114.082 484.247 116.713H484.315V106.172H486.556V131.6V131.617ZM477.864 130.259C482.634 130.259 484.315 126.236 484.315 122.417C484.315 118.598 482.634 114.575 477.864 114.575C473.587 114.575 471.838 118.598 471.838 122.417C471.838 126.236 473.587 130.259 477.864 130.259Z" fill="#808184"></path></g><defs><clipPath id="clip0_2079_120351"><rect width="500" height="131.455" fill="white" transform="translate(0 0.909607)"></rect></clipPath></defs></svg> 