<?xml version="1.0" encoding="UTF-8"?> <svg xmlns="http://www.w3.org/2000/svg" width="501" height="122" viewBox="0 0 501 122" fill="none"><g clip-path="url(#clip0_2626_119299)"><path d="M119.234 2.43408H2.23438V119.433H119.234V2.43408Z" fill="#00529B"></path><path d="M42.9375 75.8579H48.4443L58.979 92.8172H59.0588V75.8579H64.2464V101.117H58.6997L48.2049 84.1979H48.125V101.117H42.9375V75.8579Z" fill="white"></path><path d="M67.3574 82.8412H72.3854V101.157H67.3574V82.8412ZM72.3854 80.0079H67.3574V75.8579H72.3854V80.0079Z" fill="white"></path><path d="M87.3506 89.2657C87.0313 87.2306 85.7145 86.1133 83.6395 86.1133C80.4072 86.1133 79.3697 89.3855 79.3697 92.059C79.3697 94.6927 80.4072 97.8451 83.5597 97.8451C85.914 97.8451 87.2309 96.3687 87.5501 94.1341H92.3785C91.74 98.9625 88.3881 101.636 83.5597 101.636C78.0529 101.636 74.3418 97.7254 74.3418 92.2586C74.3418 86.5523 77.7337 82.3623 83.6794 82.3623C87.989 82.3623 91.9795 84.6368 92.2987 89.3056H87.3506V89.2657Z" fill="white"></path><path d="M98.9635 90.0239C99.0433 88.6273 99.9611 86.1133 103.153 86.1133C105.588 86.1133 106.705 87.4701 107.144 90.0239H98.9635ZM112.172 93.2163C112.531 87.5898 109.498 82.3623 103.273 82.3623C97.7264 82.3623 93.9355 86.5523 93.9355 92.0191C93.9355 97.6855 97.5269 101.636 103.273 101.636C107.423 101.636 110.416 99.8005 111.853 95.4908H107.423C107.104 96.6081 105.468 97.8451 103.473 97.8451C100.679 97.8451 99.1231 96.4086 98.9635 93.2163H112.172Z" fill="white"></path><mask id="mask0_2626_119299" style="mask-type:luminance" maskUnits="userSpaceOnUse" x="153" y="43" width="348" height="59"><path d="M501 43H153V101.581H501V43Z" fill="white"></path></mask><g mask="url(#mask0_2626_119299)"><path d="M372.447 93.458C372.523 92.1337 372.967 91.1735 373.781 90.5776C374.606 89.9816 375.648 89.6836 376.917 89.6836C377.405 89.6836 377.893 89.7278 378.371 89.8271C378.859 89.9154 379.293 90.103 379.673 90.3568C380.063 90.6217 380.378 90.9859 380.617 91.4605C380.855 91.935 380.974 92.542 380.974 93.3035V99.2742C380.974 99.826 381.235 100.102 381.766 100.102C381.908 100.102 382.048 100.069 382.201 100.014V101.172C382.038 101.206 381.908 101.228 381.777 101.239C381.658 101.25 381.506 101.261 381.322 101.261C380.974 101.261 380.704 101.217 380.497 101.117C380.291 101.029 380.128 100.885 380.02 100.709C379.9 100.532 379.836 100.323 379.792 100.091C379.759 99.8481 379.737 99.5832 379.737 99.2963H379.694C379.456 99.6604 379.206 99.9805 378.957 100.267C378.707 100.554 378.425 100.786 378.121 100.985C377.817 101.183 377.459 101.327 377.058 101.437C376.656 101.537 376.19 101.592 375.669 101.592C375.149 101.592 374.671 101.526 374.227 101.393C373.781 101.261 373.38 101.062 373.043 100.797C372.707 100.532 372.447 100.19 372.252 99.7708C372.056 99.3514 371.959 98.8658 371.959 98.303C371.959 97.5194 372.132 96.9014 372.468 96.4599C372.816 96.0184 373.261 95.6763 373.825 95.4446C374.389 95.2128 375.029 95.0473 375.734 94.959C376.44 94.8707 377.155 94.7714 377.883 94.6831C378.153 94.6499 378.403 94.6169 378.62 94.5616C378.837 94.5065 379.021 94.4292 379.163 94.3299C379.304 94.2306 379.412 94.0871 379.499 93.8885C379.575 93.7009 379.618 93.458 379.618 93.149C379.618 92.6855 379.543 92.2992 379.39 92.0012C379.238 91.7032 379.032 91.4715 378.772 91.2949C378.512 91.1184 378.197 90.9969 377.85 90.9307C377.503 90.8645 377.123 90.8314 376.722 90.8314C375.875 90.8314 375.181 91.0411 374.627 91.4494C374.074 91.8578 373.792 92.531 373.76 93.447H372.414L372.447 93.458ZM379.64 95.1135H379.597C379.51 95.2791 379.347 95.3894 379.108 95.4666C378.87 95.5439 378.652 95.588 378.468 95.6212C377.893 95.7205 377.308 95.8088 376.7 95.8971C376.093 95.9743 375.539 96.0957 375.04 96.2613C374.541 96.4268 374.128 96.6476 373.803 96.9455C373.478 97.2435 373.326 97.6629 373.326 98.2147C373.326 98.5679 373.391 98.8658 373.532 99.1417C373.662 99.4066 373.847 99.6384 374.074 99.837C374.302 100.036 374.563 100.179 374.866 100.278C375.17 100.378 375.474 100.433 375.788 100.433C376.299 100.433 376.798 100.356 377.264 100.19C377.73 100.036 378.143 99.7928 378.49 99.4949C378.837 99.1859 379.119 98.8217 379.325 98.3802C379.531 97.9498 379.64 97.4532 379.64 96.9014V95.1135Z" fill="white"></path><path d="M387.592 85.7104H390.933L397.312 96.1397H397.356V85.7104H400.502V101.261H397.139L390.781 90.8534H390.738V101.261H387.592V85.7104Z" fill="white"></path><path d="M402.377 89.9924H405.414V101.249H402.377V89.9924ZM405.414 88.2487H402.377V85.6992H405.414V88.2487Z" fill="white"></path><path d="M414.453 93.9547C414.257 92.6966 413.465 92.0123 412.207 92.0123C410.254 92.0123 409.614 94.0209 409.614 95.6653C409.614 97.3097 410.232 99.219 412.142 99.219C413.552 99.219 414.366 98.303 414.561 96.9344H417.49C417.1 99.9143 415.071 101.548 412.164 101.548C408.822 101.548 406.576 99.1527 406.576 95.7756C406.576 92.3986 408.627 89.6836 412.228 89.6836C414.843 89.6836 417.241 91.0742 417.425 93.9547H414.453Z" fill="white"></path><path d="M421.495 94.4178C421.538 93.546 422.092 92.0229 424.023 92.0229C425.498 92.0229 426.16 92.8507 426.442 94.4178H421.495ZM429.48 96.3823C429.697 92.9169 427.875 89.6943 424.11 89.6943C420.746 89.6943 418.457 92.2658 418.457 95.6429C418.457 99.02 420.616 101.569 424.11 101.569C426.616 101.569 428.438 100.433 429.296 97.7839H426.616C426.421 98.4792 425.433 99.2407 424.218 99.2407C422.526 99.2407 421.582 98.3467 421.495 96.3934H429.48V96.3823Z" fill="white"></path><path d="M434.784 85.6885H436.118V92.0895H436.162C436.737 90.4893 438.331 89.6505 439.97 89.6505C443.311 89.6505 444.906 92.3985 444.906 95.555C444.906 98.7113 443.311 101.459 439.97 101.459C438.201 101.459 436.671 100.532 436.053 99.0203H436.01V101.139H434.773V85.6995L434.784 85.6885ZM439.97 90.7983C437.117 90.7983 436.118 93.2373 436.118 95.555C436.118 97.8725 437.117 100.312 439.97 100.312C442.519 100.312 443.561 97.8725 443.561 95.555C443.561 93.2373 442.519 90.7983 439.97 90.7983Z" fill="white"></path><path d="M446.992 89.9704H448.229V92.586H448.273C448.956 90.7871 450.442 89.7276 452.417 89.8159V91.1734C449.997 91.041 448.338 92.8619 448.338 95.1796V101.128H447.003V89.9704H446.992Z" fill="white"></path><path d="M453.567 93.3917C453.697 90.7761 455.499 89.6504 458.015 89.6504C459.947 89.6504 462.052 90.2574 462.052 93.2372V99.1637C462.052 99.6824 462.301 99.9804 462.832 99.9804C462.984 99.9804 463.147 99.9362 463.256 99.8921V101.04C462.963 101.106 462.745 101.128 462.388 101.128C461.031 101.128 460.815 100.345 460.815 99.1857H460.771C459.838 100.632 458.883 101.459 456.768 101.459C454.652 101.459 453.09 100.444 453.09 98.1925C453.09 95.0582 456.084 94.9478 458.981 94.6057C460.087 94.4733 460.706 94.3298 460.706 93.0938C460.706 91.2507 459.404 90.7982 457.831 90.7982C456.171 90.7982 454.934 91.5817 454.902 93.3917H453.556H453.567ZM460.717 95.0361H460.673C460.5 95.3562 459.903 95.4665 459.545 95.5327C457.267 95.9411 454.446 95.919 454.446 98.1042C454.446 99.4616 455.639 100.311 456.887 100.311C458.926 100.311 460.739 98.9871 460.717 96.8019V95.0251V95.0361Z" fill="white"></path><path d="M464.708 89.9705H466.053V91.8908H466.097C466.585 90.5444 468.049 89.6394 469.601 89.6394C472.682 89.6394 473.615 91.2838 473.615 93.9435V101.128H472.281V94.1643C472.281 92.244 471.662 90.7871 469.493 90.7871C467.323 90.7871 466.086 92.4316 466.043 94.6168V101.128H464.697V89.9705H464.708Z" fill="white"></path><path d="M485.809 101.139H484.572V99.0203H484.529C483.954 100.466 482.207 101.459 480.613 101.459C477.271 101.459 475.676 98.7113 475.676 95.555C475.676 92.3985 477.271 89.6505 480.613 89.6505C482.25 89.6505 483.845 90.4893 484.42 92.0895H484.463V85.6885H485.809V101.128V101.139ZM480.623 100.323C483.477 100.323 484.475 97.8836 484.475 95.566C484.475 93.2484 483.477 90.8093 480.623 90.8093C478.074 90.8093 477.032 93.2484 477.032 95.566C477.032 97.8836 478.074 100.323 480.623 100.323Z" fill="white"></path><path d="M492.036 68.6375C493.327 68.6375 494.412 69.6748 494.412 71.0434C494.412 72.4119 493.327 73.4713 492.036 73.4713C490.745 73.4713 489.639 72.4339 489.639 71.0434C489.639 69.6528 490.734 68.6375 492.036 68.6375ZM492.036 73.1071C493.132 73.1071 493.989 72.2132 493.989 71.0323C493.989 69.8514 493.143 68.9906 492.036 68.9906C490.93 68.9906 490.072 69.8845 490.072 71.0323C490.072 72.1801 490.919 73.1071 492.036 73.1071ZM491.114 69.6307H492.188C492.85 69.6307 493.165 69.8956 493.165 70.4363C493.165 70.944 492.85 71.1647 492.437 71.2089L493.229 72.456H492.763L492.004 71.242H491.548V72.456H491.114V69.6307ZM491.548 70.8778H491.993C492.373 70.8778 492.72 70.8558 492.72 70.4142C492.72 70.039 492.405 69.9839 492.112 69.9839H491.537V70.8778H491.548Z" fill="#DA3B20"></path><path d="M376.719 74.939C372.054 74.939 367.801 73.096 365.056 69.8734C362.528 66.9047 361.433 63.053 361.996 59.0137C363.201 50.295 371.717 43.2097 380.983 43.2097C386.082 43.2097 390.573 45.3508 393.297 49.081C393.698 49.6328 393.568 50.4827 392.993 50.9682C392.7 51.222 392.32 51.3324 391.952 51.2993C391.626 51.2552 391.333 51.0896 391.148 50.8248C388.87 47.7015 385.073 45.9136 380.744 45.9136C372.846 45.9136 365.609 51.8401 364.6 59.1351C364.145 62.4239 365.034 65.5582 367.106 67.9751C369.418 70.6791 373.02 72.2241 376.99 72.2241C381.351 72.2241 385.681 70.4141 388.849 67.2578C389.141 66.9709 389.51 66.8053 389.879 66.8384C390.194 66.8384 390.498 66.9819 390.704 67.2136C391.17 67.7213 391.105 68.5821 390.573 69.1119C386.852 72.809 381.807 74.928 376.74 74.928L376.719 74.939Z" fill="#DA3B20" stroke="#DA3B20" stroke-width="0.38" stroke-miterlimit="10"></path><path d="M237.2 73.9459H218.246C217.91 73.9459 217.617 73.8135 217.411 73.5707C217.205 73.3278 217.107 72.9968 217.161 72.6657L220.687 47.9554C220.774 47.3153 221.36 46.7966 221.989 46.7966H243.243C243.579 46.7966 243.872 46.9291 244.078 47.1719C244.284 47.4147 244.371 47.7347 244.328 48.0768C244.241 48.7169 243.655 49.2356 243.026 49.2356H222.911L221.501 59.1462H232.383C232.719 59.1462 233.012 59.2786 233.218 59.5215C233.425 59.7643 233.511 60.0843 233.468 60.4265C233.381 61.0666 232.795 61.5852 232.165 61.5852H221.165L219.754 71.4958H237.438C237.775 71.4958 238.068 71.6283 238.274 71.8711C238.48 72.1139 238.567 72.4339 238.523 72.776C238.436 73.4161 237.851 73.9349 237.221 73.9349L237.2 73.9459Z" fill="#DA3B20" stroke="#DA3B20" stroke-width="0.38" stroke-miterlimit="10"></path><path d="M324.535 73.9459H303.281C302.956 73.9459 302.652 73.8135 302.446 73.5707C302.24 73.3278 302.153 72.9968 302.196 72.6657L305.722 47.9554C305.809 47.3153 306.395 46.7966 307.024 46.7966H328.278C328.614 46.7966 328.907 46.9291 329.113 47.1719C329.319 47.4147 329.406 47.7347 329.363 48.0768C329.276 48.7169 328.69 49.2356 328.061 49.2356H307.947L306.536 59.1462H317.418C317.754 59.1462 318.047 59.2786 318.253 59.5215C318.46 59.7643 318.546 60.0843 318.503 60.4265C318.416 61.0666 317.831 61.5852 317.201 61.5852H306.2L304.79 71.4958H324.774C325.11 71.4958 325.403 71.6283 325.609 71.8711C325.815 72.1139 325.902 72.4339 325.859 72.776C325.772 73.4161 325.186 73.9349 324.557 73.9349L324.535 73.9459Z" fill="#DA3B20" stroke="#DA3B20" stroke-width="0.38" stroke-miterlimit="10"></path><path d="M453.695 73.9459C453.359 73.9459 453.066 73.8135 452.86 73.5707C452.654 73.3278 452.567 73.0078 452.611 72.6657L456.137 47.9554C456.223 47.3153 456.809 46.7966 457.438 46.7966H478.692C479.028 46.7966 479.321 46.9291 479.527 47.1719C479.734 47.4147 479.82 47.7347 479.777 48.0768C479.69 48.7169 479.104 49.2356 478.475 49.2356H458.36L456.95 59.1462H467.832C468.168 59.1462 468.461 59.2786 468.667 59.5215C468.873 59.7643 468.96 60.0843 468.917 60.4265C468.819 61.0666 468.233 61.5852 467.615 61.5852H456.614L455.019 72.7871C454.932 73.4272 454.347 73.9459 453.717 73.9459H453.695Z" fill="#DA3B20" stroke="#DA3B20" stroke-width="0.38" stroke-miterlimit="10"></path><path d="M296.816 73.9456C296.48 73.9456 296.187 73.8132 295.981 73.5593L284.763 60.2165L274.63 67.1914L273.838 72.7868C273.751 73.4269 273.164 73.9456 272.535 73.9456C272.199 73.9456 271.906 73.8132 271.7 73.5704C271.494 73.3276 271.407 73.0075 271.45 72.6654L274.977 47.9552C275.063 47.315 275.649 46.7963 276.278 46.7963C276.615 46.7963 276.908 46.9288 277.114 47.1716C277.32 47.4144 277.407 47.7455 277.363 48.0766L275.085 64.0571L299.843 47.0171C300.136 46.8184 300.494 46.7412 300.819 46.8074C301.112 46.8736 301.362 47.0502 301.514 47.304C301.839 47.8448 301.644 48.5953 301.08 48.9926L286.878 58.7707L297.901 71.8819C298.313 72.3674 298.216 73.14 297.705 73.6035C297.456 73.8242 297.152 73.9456 296.849 73.9456H296.816Z" fill="#DA3B20" stroke="#DA3B20" stroke-width="0.38" stroke-miterlimit="10"></path><path d="M242.483 74.3762C242.298 74.3762 242.114 74.3321 241.951 74.2438C241.691 74.1003 241.506 73.8575 241.43 73.5485C241.343 73.2174 241.409 72.8532 241.604 72.5442L257.509 47.0504C257.878 46.4654 258.615 46.2447 259.158 46.5427C259.386 46.6751 259.56 46.8848 259.657 47.1387L268.282 72.202C268.489 72.798 268.163 73.5264 267.567 73.8134C267.393 73.9017 267.219 73.9348 267.035 73.9348C266.557 73.9348 266.156 73.6478 266.004 73.2064L263.02 64.5429H249.329L243.611 73.7361C243.372 74.1224 242.927 74.3762 242.494 74.3762H242.483ZM250.87 62.0708H262.163L258.149 50.4165L250.87 62.0708Z" fill="#DA3B20" stroke="#DA3B20" stroke-width="0.38" stroke-miterlimit="10"></path><path d="M423.936 74.3762C423.751 74.3762 423.567 74.3321 423.404 74.2438C423.144 74.1003 422.959 73.8575 422.883 73.5485C422.796 73.2174 422.862 72.8532 423.057 72.5442L438.973 47.0504C439.342 46.4654 440.08 46.2447 440.622 46.5427C440.85 46.6751 441.023 46.8848 441.121 47.1387L449.746 72.202C449.952 72.798 449.627 73.5264 449.03 73.8134C448.857 73.9017 448.683 73.9348 448.498 73.9348C448.021 73.9348 447.62 73.6478 447.468 73.2064L444.485 64.5429H430.793L425.075 73.7361C424.836 74.1224 424.392 74.3762 423.957 74.3762H423.936ZM432.323 62.0708H443.617L439.602 50.4165L432.323 62.0708Z" fill="#DA3B20" stroke="#DA3B20" stroke-width="0.38" stroke-miterlimit="10"></path><path d="M187.965 74.001C187.629 74.001 187.336 73.8686 187.13 73.6259C186.923 73.383 186.826 73.063 186.88 72.7208L190.406 48.0106C190.493 47.3705 191.079 46.8518 191.708 46.8518H208.405C210.748 46.8518 212.821 47.7789 214.264 49.4674C215.717 51.178 216.325 53.4515 215.988 55.8574C215.294 60.7575 210.803 64.7306 205.985 64.7306H190.428L189.267 72.8423C189.18 73.4824 188.594 74.001 187.965 74.001ZM190.775 62.2916H206.203C209.761 62.2916 213.07 59.3449 213.591 55.725C213.84 53.9923 213.406 52.3589 212.365 51.1449C211.345 49.942 209.859 49.2908 208.188 49.2908H192.63L190.775 62.2916Z" fill="#DA3B20" stroke="#DA3B20" stroke-width="0.38" stroke-miterlimit="10"></path><path d="M355.358 74.1224C354.978 74.1224 354.653 73.9458 354.447 73.6478L348.501 64.8519H333.529L332.369 72.9636C332.271 73.6037 331.685 74.1224 331.067 74.1224C330.73 74.1224 330.437 73.99 330.231 73.7471C330.025 73.5044 329.938 73.1844 329.981 72.8422L333.507 48.1319C333.594 47.4918 334.18 46.9731 334.81 46.9731H351.507C353.85 46.9731 355.922 47.9002 357.365 49.5887C358.819 51.2994 359.426 53.5728 359.09 55.9788C358.515 59.9849 355.293 63.5497 351.354 64.565L356.487 72.158C356.844 72.6767 356.681 73.4492 356.139 73.8575C355.911 74.0341 355.64 74.1224 355.369 74.1224H355.358ZM333.876 62.4129H349.304C352.862 62.4129 356.172 59.4662 356.693 55.8463C356.942 54.1136 356.508 52.4802 355.466 51.2662C354.447 50.0633 352.96 49.4122 351.278 49.4122H335.721L333.866 62.4129H333.876Z" fill="#DA3B20" stroke="#DA3B20" stroke-width="0.38" stroke-miterlimit="10"></path><path d="M419.499 74.1224C419.12 74.1224 418.794 73.9458 418.588 73.6478L412.632 64.8519H397.66L396.499 72.9636C396.402 73.6037 395.816 74.1224 395.197 74.1224C394.861 74.1224 394.568 73.99 394.362 73.7471C394.156 73.5044 394.059 73.1844 394.112 72.8422L397.639 48.1319C397.725 47.4918 398.311 46.9731 398.94 46.9731H415.637C417.981 46.9731 420.053 47.9002 421.496 49.5887C422.95 51.2994 423.557 53.5728 423.221 55.9788C422.646 59.9849 419.424 63.5497 415.486 64.565L420.617 72.158C420.975 72.6767 420.813 73.4492 420.27 73.8575C420.042 74.0341 419.771 74.1224 419.499 74.1224ZM398.018 62.4129H413.446C417.004 62.4129 420.313 59.4662 420.834 55.8463C421.084 54.1136 420.65 52.4802 419.608 51.2662C418.588 50.0633 417.102 49.4122 415.431 49.4122H399.874L398.018 62.4129Z" fill="#DA3B20" stroke="#DA3B20" stroke-width="0.38" stroke-miterlimit="10"></path><path d="M173.438 73.968H160.115C158.011 73.968 156.134 73.1292 154.843 71.6173C153.53 70.0722 152.977 68.0194 153.291 65.8563C153.389 65.1831 154.007 64.6423 154.669 64.6423C155.016 64.6423 155.32 64.7858 155.537 65.0396C155.754 65.2935 155.852 65.6356 155.797 65.9887C155.591 67.4566 155.96 68.8251 156.828 69.8515C157.685 70.8668 158.944 71.4186 160.365 71.4186H173.688C176.704 71.4186 179.503 68.9244 179.937 65.8563C180.143 64.3885 179.785 63.02 178.906 61.9936C178.049 60.9783 176.791 60.4265 175.369 60.4265H162.047C159.942 60.4265 158.065 59.5877 156.774 58.0757C155.461 56.5306 154.908 54.4889 155.222 52.3148C155.852 47.8892 159.888 44.3135 164.216 44.3135H177.539C179.644 44.3135 181.521 45.1522 182.812 46.6642C184.125 48.2093 184.678 50.251 184.363 52.4252C184.266 53.0983 183.647 53.6392 182.996 53.6392C182.649 53.6392 182.346 53.4957 182.129 53.2418C181.912 52.988 181.814 52.6459 181.868 52.2927C182.074 50.8249 181.716 49.4564 180.837 48.43C179.98 47.4147 178.722 46.8629 177.301 46.8629H163.978C160.962 46.8629 158.163 49.3571 157.729 52.4252C157.522 53.893 157.881 55.2615 158.759 56.2879C159.616 57.3032 160.875 57.855 162.296 57.855H175.619C177.724 57.855 179.601 58.6937 180.892 60.2057C182.204 61.7508 182.758 63.7925 182.443 65.9667C181.814 70.3701 177.778 73.9569 173.449 73.9569L173.438 73.968Z" fill="#DA3B20" stroke="#DA3B20" stroke-width="0.38" stroke-miterlimit="10"></path><path d="M484.041 73.6478C483.715 73.6478 483.422 73.5153 483.216 73.2726C483.01 73.0298 482.923 72.7097 482.967 72.3787L486.254 49.2907H481.979C481.654 49.2907 481.361 49.1583 481.155 48.9155C480.949 48.6727 480.862 48.3526 480.905 48.0216C480.992 47.3925 481.578 46.8738 482.196 46.8738H499.707C500.033 46.8738 500.325 47.0062 500.532 47.249C500.738 47.4918 500.824 47.8119 500.781 48.143C500.694 48.772 500.109 49.2907 499.49 49.2907H488.641L485.332 72.5001C485.245 73.1291 484.659 73.6478 484.041 73.6478Z" fill="#DA3B20" stroke="#DA3B20" stroke-width="0.38" stroke-miterlimit="10"></path></g></g><defs><clipPath id="clip0_2626_119299"><rect width="500.12" height="121.229" fill="white"></rect></clipPath></defs></svg> 